{
	"asset":{
		"generator":"Khronos glTF Blender I/O v3.5.30",
		"version":"2.0"
	},
	"scene":0,
	"scenes":[
		{
			"name":"Scene",
			"nodes":[
				3
			]
		}
	],
	"nodes":[
		{
			"name":"Bone.001",
			"translation":[
				0,
				1.985971212387085,
				0
			]
		},
		{
			"children":[
				0
			],
			"name":"Bone"
		},
		{
			"mesh":0,
			"name":"Cube",
			"skin":0
		},
		{
			"children":[
				2,
				1
			],
			"name":"\u30a2\u30fc\u30de\u30c1\u30e5\u30a2"
		}
	],
	"animations":[
		{
			"channels":[
				{
					"sampler":0,
					"target":{
						"node":1,
						"path":"translation"
					}
				},
				{
					"sampler":1,
					"target":{
						"node":1,
						"path":"rotation"
					}
				},
				{
					"sampler":2,
					"target":{
						"node":1,
						"path":"scale"
					}
				},
				{
					"sampler":3,
					"target":{
						"node":0,
						"path":"translation"
					}
				},
				{
					"sampler":4,
					"target":{
						"node":0,
						"path":"rotation"
					}
				},
				{
					"sampler":5,
					"target":{
						"node":0,
						"path":"scale"
					}
				}
			],
			"name":"\u30a2\u30fc\u30de\u30c1\u30e5\u30a2Action.001",
			"samplers":[
				{
					"input":7,
					"interpolation":"LINEAR",
					"output":8
				},
				{
					"input":7,
					"interpolation":"LINEAR",
					"output":9
				},
				{
					"input":7,
					"interpolation":"LINEAR",
					"output":10
				},
				{
					"input":7,
					"interpolation":"LINEAR",
					"output":11
				},
				{
					"input":7,
					"interpolation":"LINEAR",
					"output":12
				},
				{
					"input":7,
					"interpolation":"LINEAR",
					"output":13
				}
			]
		}
	],
	"materials":[
		{
			"doubleSided":true,
			"name":"Material",
			"pbrMetallicRoughness":{
				"baseColorFactor":[
					0.800000011920929,
					0.800000011920929,
					0.800000011920929,
					1
				],
				"metallicFactor":0,
				"roughnessFactor":0.5
			}
		}
	],
	"meshes":[
		{
			"name":"Cube",
			"primitives":[
				{
					"attributes":{
						"POSITION":0,
						"TEXCOORD_0":1,
						"NORMAL":2,
						"JOINTS_0":3,
						"WEIGHTS_0":4
					},
					"indices":5,
					"material":0
				}
			]
		}
	],
	"skins":[
		{
			"inverseBindMatrices":6,
			"joints":[
				1,
				0
			],
			"name":"\u30a2\u30fc\u30de\u30c1\u30e5\u30a2"
		}
	],
	"accessors":[
		{
			"bufferView":0,
			"componentType":5126,
			"count":32,
			"max":[
				1,
				4,
				1
			],
			"min":[
				-1,
				0,
				-1
			],
			"type":"VEC3"
		},
		{
			"bufferView":1,
			"componentType":5126,
			"count":32,
			"type":"VEC2"
		},
		{
			"bufferView":2,
			"componentType":5126,
			"count":32,
			"type":"VEC3"
		},
		{
			"bufferView":3,
			"componentType":5121,
			"count":32,
			"type":"VEC4"
		},
		{
			"bufferView":4,
			"componentType":5126,
			"count":32,
			"type":"VEC4"
		},
		{
			"bufferView":5,
			"componentType":5123,
			"count":60,
			"type":"SCALAR"
		},
		{
			"bufferView":6,
			"componentType":5126,
			"count":2,
			"type":"MAT4"
		},
		{
			"bufferView":7,
			"componentType":5126,
			"count":61,
			"max":[
				2.5
			],
			"min":[
				0
			],
			"type":"SCALAR"
		},
		{
			"bufferView":8,
			"componentType":5126,
			"count":61,
			"type":"VEC3"
		},
		{
			"bufferView":9,
			"componentType":5126,
			"count":61,
			"type":"VEC4"
		},
		{
			"bufferView":10,
			"componentType":5126,
			"count":61,
			"type":"VEC3"
		},
		{
			"bufferView":11,
			"componentType":5126,
			"count":61,
			"type":"VEC3"
		},
		{
			"bufferView":12,
			"componentType":5126,
			"count":61,
			"type":"VEC4"
		},
		{
			"bufferView":13,
			"componentType":5126,
			"count":61,
			"type":"VEC3"
		}
	],
	"bufferViews":[
		{
			"buffer":0,
			"byteLength":384,
			"byteOffset":0,
			"target":34962
		},
		{
			"buffer":0,
			"byteLength":256,
			"byteOffset":384,
			"target":34962
		},
		{
			"buffer":0,
			"byteLength":384,
			"byteOffset":640,
			"target":34962
		},
		{
			"buffer":0,
			"byteLength":128,
			"byteOffset":1024,
			"target":34962
		},
		{
			"buffer":0,
			"byteLength":512,
			"byteOffset":1152,
			"target":34962
		},
		{
			"buffer":0,
			"byteLength":120,
			"byteOffset":1664,
			"target":34963
		},
		{
			"buffer":0,
			"byteLength":128,
			"byteOffset":1784
		},
		{
			"buffer":0,
			"byteLength":244,
			"byteOffset":1912
		},
		{
			"buffer":0,
			"byteLength":732,
			"byteOffset":2156
		},
		{
			"buffer":0,
			"byteLength":976,
			"byteOffset":2888
		},
		{
			"buffer":0,
			"byteLength":732,
			"byteOffset":3864
		},
		{
			"buffer":0,
			"byteLength":732,
			"byteOffset":4596
		},
		{
			"buffer":0,
			"byteLength":976,
			"byteOffset":5328
		},
		{
			"buffer":0,
			"byteLength":732,
			"byteOffset":6304
		}
	],
	"buffers":[
		{
			"byteLength":7036,
			"uri":"data:application/octet-stream;base64,"
		}
	]
}
